<mxfile host="app.diagrams.net" modified="2022-02-07T21:44:21.191Z" agent="5.0 (Windows)" etag="w8bF3SHg6qvUqXSjxxQ8" version="16.5.3" type="github">
  <diagram id="Tr4Ga-ejOgOUndb2-Z3W" name="Page-1">
    <mxGraphModel dx="870" dy="584" grid="1" gridSize="10" guides="1" tooltips="1" connect="1" arrows="1" fold="1" page="1" pageScale="1" pageWidth="827" pageHeight="1169" math="0" shadow="0">
      <root>
        <mxCell id="0" />
        <mxCell id="1" parent="0" />
        <mxCell id="Y6yOmWOLZl72Y79lmluF-1" value="time_base" style="swimlane;" vertex="1" parent="1">
          <mxGeometry x="160" y="120" width="200" height="200" as="geometry" />
        </mxCell>
      </root>
    </mxGraphModel>
  </diagram>
</mxfile>
